<svg width="23" height="23" viewBox="0 0 23 23" fill="none" xmlns="http://www.w3.org/2000/svg">
<path fill-rule="evenodd" clip-rule="evenodd" d="M19.2406 6.23474C20.9661 6.23474 22.365 4.86557 22.365 3.17682C22.365 1.48807 20.9661 0.118896 19.2406 0.118896C17.5146 0.118896 16.1157 1.48807 16.1157 3.17682C16.1157 4.86557 17.5146 6.23474 19.2406 6.23474Z" fill="#27375A"/>
<path fill-rule="evenodd" clip-rule="evenodd" d="M19.2406 14.2579C20.9661 14.2579 22.365 12.8888 22.365 11.2C22.365 9.5108 20.9661 8.14209 19.2406 8.14209C17.5146 8.14209 16.1157 9.5108 16.1157 11.2C16.1157 12.8888 17.5146 14.2579 19.2406 14.2579Z" fill="#27375A"/>
<path fill-rule="evenodd" clip-rule="evenodd" d="M19.2406 22.2809C20.9661 22.2809 22.365 20.9122 22.365 19.223C22.365 17.5342 20.9661 16.165 19.2406 16.165C17.5146 16.165 16.1157 17.5342 16.1157 19.223C16.1157 20.9122 17.5146 22.2809 19.2406 22.2809Z" fill="#27375A"/>
<path fill-rule="evenodd" clip-rule="evenodd" d="M11.2845 14.2579C13.0105 14.2579 14.4093 12.8888 14.4093 11.2C14.4093 9.5108 13.0105 8.14209 11.2845 8.14209C9.55907 8.14209 8.16016 9.5108 8.16016 11.2C8.16016 12.8888 9.55907 14.2579 11.2845 14.2579Z" fill="#27375A"/>
<path fill-rule="evenodd" clip-rule="evenodd" d="M11.2845 22.2807C13.0105 22.2807 14.4093 20.9119 14.4093 19.2227C14.4093 17.534 13.0105 16.1648 11.2845 16.1648C9.55907 16.1648 8.16016 17.534 8.16016 19.2227C8.16016 20.9119 9.55907 22.2807 11.2845 22.2807Z" fill="#27375A"/>
<path fill-rule="evenodd" clip-rule="evenodd" d="M3.32767 22.2809C5.0533 22.2809 6.45222 20.9122 6.45222 19.223C6.45222 17.5342 5.0533 16.165 3.32767 16.165C1.60204 16.165 0.203125 17.5342 0.203125 19.223C0.203125 20.9122 1.60204 22.2809 3.32767 22.2809Z" fill="#27375A"/>
</svg>
