<svg width="28" height="21" viewBox="0 0 28 21" fill="none" xmlns="http://www.w3.org/2000/svg">
<path d="M1.39258 19.1295C1.39258 16.4189 3.61044 14.201 6.32116 14.201H11.2498C13.9605 14.201 16.1784 16.4189 16.1784 19.1295" stroke="#27375A" stroke-width="2" stroke-linecap="round" stroke-linejoin="round"/>
<path d="M11.8658 3.11174C13.5909 4.83634 13.5909 7.54747 11.8658 9.14906C10.1407 10.7507 7.43002 10.8743 5.82819 9.14906C4.2264 7.42387 4.10321 4.83634 5.70499 3.11174C7.30676 1.38652 10.1407 1.50953 11.8658 3.11174Z" stroke="#27375A" stroke-width="2" stroke-linecap="round" stroke-linejoin="round"/>
<path d="M18.6428 12.9685H22.3393C24.4341 12.9685 26.0357 14.5701 26.0357 16.6649" stroke="#27375A" stroke-width="2" stroke-linecap="round" stroke-linejoin="round"/>
<path d="M22.709 3.97402C23.9409 5.20592 23.9409 7.17782 22.709 8.28674C21.4764 9.39568 19.5052 9.5187 18.3963 8.28674C17.2873 7.05419 17.1643 5.08297 18.3963 3.97402C19.5052 2.8651 21.4764 2.8651 22.709 3.97402Z" stroke="#27375A" stroke-width="2" stroke-linecap="round" stroke-linejoin="round"/>
</svg>
