<svg width="25" height="24" viewBox="0 0 25 24" fill="none" xmlns="http://www.w3.org/2000/svg">
<path d="M12.633 0.03479C6.19412 0.03479 0.973633 5.25674 0.973633 11.6942C0.973633 18.1346 6.19412 23.3535 12.633 23.3535C19.0719 23.3535 24.2924 18.1346 24.2924 11.6942C24.2924 5.25674 19.0719 0.03479 12.633 0.03479ZM12.633 21.0975C7.43584 21.0975 3.22972 16.8928 3.22972 11.6942C3.22972 6.49994 7.4373 2.29089 12.633 2.29089C17.8273 2.29089 22.0363 6.49847 22.0363 11.6942C22.0363 16.8899 17.8316 21.0975 12.633 21.0975ZM17.6742 9.0985C17.6742 12.2509 14.2697 12.3005 14.2697 13.4649V13.7623C14.2697 14.0741 14.0175 14.3263 13.7057 14.3263H11.5603C11.2485 14.3263 10.9963 14.0741 10.9963 13.7623V13.3556C10.9963 11.6752 12.2701 11.0033 13.232 10.4641C14.0584 10.0006 14.5641 9.68584 14.5641 9.07227C14.5641 8.26196 13.5293 7.72415 12.6942 7.72415C11.6041 7.72415 11.0998 8.2401 10.3929 9.13348C10.202 9.37395 9.85371 9.41768 9.60886 9.2326L8.30156 8.24152C8.06107 8.05936 8.00714 7.72125 8.17767 7.47202C9.28824 5.84116 10.7019 4.92445 12.9055 4.92445C15.2126 4.92445 17.6742 6.72435 17.6742 9.0985ZM14.6078 16.9599C14.6078 18.0486 13.7217 18.9347 12.633 18.9347C11.5443 18.9347 10.6582 18.0486 10.6582 16.9599C10.6582 15.8712 11.5443 14.985 12.633 14.985C13.7217 14.985 14.6078 15.8712 14.6078 16.9599Z" fill="white"/>
</svg>
