<svg width="23" height="23" viewBox="0 0 23 23" fill="none" xmlns="http://www.w3.org/2000/svg">
<path d="M8.28036 14.3209V21.2005C8.28036 21.5024 8.03558 21.7473 7.7336 21.7473H1.99278C1.69082 21.7473 1.44604 21.5024 1.44604 21.2005V9.82116C1.44604 9.48485 1.60033 9.1678 1.86446 8.96059L11.0228 1.77365C11.4192 1.46308 11.9763 1.46256 12.3727 1.77365L21.5302 8.95073C21.7943 9.15798 21.949 9.47561 21.949 9.81133V21.2005C21.949 21.5024 21.7062 21.7473 21.4039 21.7473H15.6598C15.358 21.7473 15.1147 21.5024 15.1147 21.2005V14.3209C15.1147 14.0185 14.8697 13.7741 14.5679 13.7741H8.8271C8.52514 13.7741 8.28036 14.0185 8.28036 14.3209Z" stroke="#263659" stroke-width="2" stroke-linecap="round"/>
</svg>
