<svg width="144" height="37" viewBox="0 0 144 37" fill="none" xmlns="http://www.w3.org/2000/svg">
<path d="M65.2006 12.3831H71.611L72.8036 15.2757H75.5066L69.778 2.04321H67.1893L61.3665 15.2757H64.013L65.2006 12.3831ZM68.3983 4.59555L70.761 10.3229H66.0468L68.3983 4.59555Z" fill="white"/>
<path d="M77.5767 14.8976C78.1253 15.2127 78.7769 15.3697 79.5339 15.3697C80.3901 15.3571 81.1271 15.1725 81.7448 14.8122C82.2896 14.4959 82.7203 14.0125 83.0492 13.381V15.2755H85.5262V5.19922H83.0492V10.152C83.0492 11.0095 82.8257 11.7213 82.3788 12.2888C81.9306 12.8562 81.3104 13.1525 80.5169 13.1776C79.8365 13.1776 79.3029 12.9667 78.9187 12.5436C78.5346 12.1218 78.3425 11.5455 78.3425 10.8149V5.19922H75.8655V11.4765C75.8655 12.2699 76.0136 12.9604 76.3099 13.5467C76.6062 14.1318 77.028 14.5825 77.5767 14.8976Z" fill="white"/>
<path d="M89.5814 14.7182C90.3058 15.1526 91.147 15.3698 92.1049 15.3698C93 15.3698 93.7684 15.1651 94.4112 14.7558C94.8506 14.4759 95.2121 14.1043 95.5072 13.6523V15.2756H97.9653V1.24841H95.5072V6.83267C95.2071 6.37695 94.838 5.99905 94.3923 5.7103C93.7495 5.29474 92.9686 5.08634 92.0484 5.08634C91.103 5.08634 90.2744 5.30102 89.5613 5.72913C88.8495 6.15724 88.2921 6.75609 87.8891 7.52443C87.4861 8.29402 87.2839 9.18916 87.2839 10.2098C87.2839 11.218 87.4861 12.1119 87.8891 12.894C88.2921 13.6749 88.8558 14.2838 89.5814 14.7182ZM90.1388 8.6217C90.3786 8.14211 90.7151 7.76422 91.1507 7.48677C91.5851 7.21057 92.0798 7.07121 92.6347 7.07121C93.2021 7.07121 93.7018 7.21057 94.1375 7.48677C94.5718 7.76422 94.9083 8.1396 95.1481 8.61165C95.3879 9.08496 95.5072 9.63611 95.5072 10.2663C95.5072 10.884 95.3879 11.4314 95.1481 11.911C94.9083 12.3893 94.5718 12.7647 94.1375 13.0359C93.7018 13.3071 93.2021 13.4414 92.6347 13.4414C92.0798 13.4414 91.5851 13.3071 91.1507 13.0359C90.7151 12.7647 90.3786 12.3893 90.1388 11.911C89.899 11.4314 89.7735 10.884 89.7609 10.2663C89.7735 9.64866 89.899 9.10003 90.1388 8.6217Z" fill="white"/>
<path d="M101.198 3.70637C101.601 3.70637 101.935 3.57078 102.199 3.2996C102.464 3.02968 102.596 2.69824 102.596 2.30779C102.596 1.90479 102.464 1.56958 102.199 1.30594C101.935 1.04104 101.601 0.907959 101.198 0.907959C100.807 0.907959 100.479 1.04104 100.215 1.30594C99.9497 1.56958 99.8179 1.90479 99.8179 2.30779C99.8179 2.69824 99.9497 3.02968 100.215 3.2996C100.479 3.57078 100.807 3.70637 101.198 3.70637Z" fill="white"/>
<path d="M99.9875 15.2759H102.446V5.19958H99.9875V15.2759Z" fill="white"/>
<path d="M105.527 12.4024C105.527 13.0829 105.658 13.6478 105.923 14.0948C106.188 14.5417 106.547 14.8694 107.002 15.0765C107.455 15.2849 107.952 15.3891 108.494 15.3891C108.936 15.3891 109.373 15.3226 109.809 15.1908C110.243 15.059 110.65 14.8794 111.028 14.6522L110.46 12.8745C110.183 13.0264 109.924 13.1369 109.686 13.2059C109.446 13.275 109.225 13.3101 109.024 13.3101C108.697 13.3101 108.438 13.2147 108.248 13.0264C108.06 12.8368 107.965 12.4903 107.965 11.9869V7.29773H110.858V5.57776H107.965V2.81702H105.527V5.57776H104.109V7.29773H105.527V12.4024Z" fill="white"/>
<path d="M125.054 10.7198L120.668 2.04333H117.776V15.2758H120.083V5.57744L124.222 13.9149H125.848L129.969 5.57744V15.2758H132.294V2.04333H129.402L125.054 10.7198Z" fill="white"/>
<path d="M141.463 5.19971L138.835 12.686L135.962 5.19971H133.409L137.587 15.1241L137.285 15.8234C137.122 16.1887 136.916 16.4599 136.671 16.6369C136.425 16.8127 136.139 16.9018 135.811 16.9018C135.395 16.9018 134.96 16.7311 134.506 16.3908L133.448 18.1686C133.839 18.4573 134.232 18.6783 134.629 18.8302C135.026 18.9808 135.471 19.0562 135.962 19.0562C136.768 19.0562 137.462 18.849 138.042 18.4335C138.621 18.0166 139.075 17.4052 139.403 16.5992L143.94 5.19971H141.463Z" fill="white"/>
<path d="M70.6102 20.8159C69.69 20.0212 68.3918 19.6245 66.7158 19.6245H61.3098V32.8583H63.8433V28.9073H66.7158C68.3918 28.9073 69.69 28.4905 70.6102 27.6594C71.5305 26.8283 71.9912 25.662 71.9912 24.163C71.9912 22.7255 71.5305 21.6106 70.6102 20.8159ZM68.786 26.1654C68.2763 26.5948 67.5482 26.8082 66.6028 26.8082H63.8433V21.7425H66.6028C67.5482 21.7425 68.2763 21.9471 68.786 22.3564C69.297 22.7669 69.5519 23.3871 69.5519 24.2195C69.5519 25.0883 69.297 25.7373 68.786 26.1654Z" fill="white"/>
<path d="M80.8751 23.6326C80.157 23.0024 79.1363 22.6873 77.8131 22.6873C77.1828 22.6873 76.6254 22.735 76.1396 22.8291C75.6549 22.9233 75.1917 23.0626 74.751 23.2447C74.3091 23.428 73.8496 23.664 73.37 23.954L74.2589 25.5422C74.7749 25.227 75.2896 24.9847 75.7993 24.814C76.3103 24.6445 76.7974 24.5591 77.2644 24.5591C78.0202 24.5591 78.5902 24.7324 78.9756 25.0789C79.3598 25.4254 79.5519 25.9012 79.5519 26.5063L79.5531 26.8089H76.6028C75.38 26.8215 74.4346 27.0952 73.7667 27.6312C73.0988 28.1673 72.7649 28.9005 72.7649 29.8333C72.7649 30.4259 72.9105 30.9582 73.1993 31.4302C73.4905 31.9035 73.8998 32.2789 74.4284 32.5551C74.9582 32.8326 75.5821 32.9719 76.3003 32.9719C77.1954 32.9719 77.9575 32.8012 78.5877 32.461C78.9806 32.2488 79.302 31.9688 79.5669 31.6336L79.5707 32.8577H81.99L81.9724 26.2414C81.9586 25.1329 81.5932 24.2629 80.8751 23.6326ZM79.1639 30.2024C78.9304 30.4987 78.6153 30.7322 78.2198 30.9017C77.8219 31.0712 77.3774 31.1566 76.8865 31.1566C76.3316 31.1566 75.8935 31.0247 75.5721 30.7598C75.2519 30.4949 75.09 30.1484 75.09 29.7203C75.09 29.2533 75.2482 28.9193 75.5633 28.7185C75.8784 28.5163 76.3567 28.4159 76.9995 28.4159H79.5582L79.5607 29.2696C79.5142 29.6111 79.3849 29.9224 79.1639 30.2024Z" fill="white"/>
<path d="M87.8704 30.2685L84.9967 22.7822H82.4443L86.6225 32.7066L86.3199 33.4071C86.1567 33.7712 85.9521 34.0424 85.706 34.2194C85.4599 34.3952 85.1737 34.4843 84.846 34.4843C84.4305 34.4843 83.9948 34.3136 83.5416 33.9733L82.482 35.7511C82.8737 36.0398 83.2667 36.2608 83.6646 36.4127C84.0614 36.5634 84.5058 36.6387 84.9967 36.6387C85.8039 36.6387 86.4969 36.4315 87.077 36.0147C87.6557 35.5992 88.1102 34.9878 88.4379 34.1818L92.9751 22.7822H90.4981L87.8704 30.2685Z" fill="white"/>
<path d="M96.5656 24.7193V22.7821H94.1074V32.8584H96.5656V27.981C96.5656 27.3633 96.7037 26.8147 96.9824 26.3363C97.2586 25.8568 97.6553 25.4889 98.1726 25.2303C98.6898 24.9717 99.3 24.8687 100.006 24.9189V22.688C99.1619 22.688 98.4312 22.8901 97.8135 23.2931C97.2925 23.6333 96.8795 24.1142 96.5656 24.7193Z" fill="white"/>
<path d="M108.542 23.3304C107.742 22.9023 106.818 22.6876 105.772 22.6876C104.714 22.6876 103.781 22.9023 102.974 23.3304C102.168 23.7585 101.54 24.3574 101.093 25.127C100.646 25.8953 100.421 26.7892 100.421 27.8111C100.421 28.8318 100.646 29.727 101.093 30.4953C101.54 31.2636 102.168 31.865 102.974 32.3006C103.781 32.735 104.714 32.9522 105.772 32.9522C106.818 32.9522 107.742 32.735 108.542 32.3006C109.341 31.865 109.967 31.2636 110.412 30.4953C110.86 29.727 111.084 28.8318 111.084 27.8111C111.084 26.7892 110.86 25.8953 110.412 25.127C109.967 24.3574 109.341 23.7585 108.542 23.3304ZM108.249 29.4934C108.009 29.9718 107.675 30.3434 107.247 30.6083C106.818 30.8732 106.327 31.005 105.772 31.005C105.205 31.005 104.704 30.8732 104.269 30.6083C103.834 30.3434 103.497 29.9718 103.259 29.4934C103.019 29.0139 102.898 28.4602 102.898 27.83C102.898 27.2123 103.019 26.6674 103.259 26.1941C103.497 25.7221 103.834 25.3504 104.269 25.0793C104.704 24.8081 105.205 24.6725 105.772 24.6725C106.327 24.6725 106.818 24.8081 107.247 25.0793C107.675 25.3504 108.009 25.7221 108.249 26.1941C108.488 26.6674 108.608 27.2123 108.608 27.83C108.608 28.4602 108.488 29.0139 108.249 29.4934Z" fill="white"/>
<path d="M112.936 32.8585H115.394V18.8313H112.936V32.8585Z" fill="white"/>
<path d="M117.511 32.8585H119.968V18.8313H117.511V32.8585Z" fill="white"/>
<path d="M127.465 27.8899C127.206 27.6288 126.903 27.4241 126.558 27.2747C126.213 27.1266 125.841 27.0513 125.442 27.0513C125.037 27.0513 124.662 27.1279 124.316 27.2785C123.971 27.4304 123.669 27.6388 123.411 27.9025C123.152 28.1674 122.95 28.4724 122.803 28.8215C122.658 29.1692 122.585 29.5371 122.585 29.925C122.585 30.3129 122.656 30.6795 122.799 31.0248C122.943 31.37 123.145 31.6751 123.402 31.9388C123.661 32.2037 123.963 32.4095 124.308 32.5589C124.654 32.7083 125.025 32.7824 125.425 32.7824C125.83 32.7824 126.204 32.7058 126.549 32.5552C126.896 32.4033 127.199 32.1949 127.461 31.9312C127.722 31.6663 127.925 31.3612 128.071 31.0122C128.217 30.6645 128.291 30.2966 128.291 29.9087C128.291 29.5157 128.217 29.1454 128.071 28.8001C127.925 28.4549 127.723 28.151 127.465 27.8899ZM127.629 30.8314C127.507 31.1202 127.339 31.3751 127.123 31.5935C126.907 31.8132 126.654 31.9852 126.365 32.112C126.075 32.2388 125.762 32.3016 125.425 32.3016C125.088 32.3016 124.775 32.2401 124.489 32.117C124.203 31.9927 123.953 31.822 123.74 31.6023C123.526 31.3826 123.359 31.1302 123.243 30.844C123.125 30.5578 123.066 30.2514 123.066 29.925C123.066 29.5998 123.126 29.2923 123.246 29.0022C123.367 28.7135 123.534 28.4586 123.749 28.2402C123.961 28.0205 124.213 27.8472 124.502 27.7217C124.792 27.5949 125.104 27.5321 125.442 27.5321C125.779 27.5321 126.091 27.5936 126.377 27.7167C126.664 27.841 126.914 28.0129 127.127 28.2314C127.34 28.4511 127.507 28.7034 127.629 28.9897C127.75 29.2759 127.81 29.5823 127.81 29.9087C127.81 30.2338 127.75 30.5414 127.629 30.8314Z" fill="white"/>
<path d="M126.356 30.1278C126.556 29.9482 126.655 29.6972 126.655 29.377C126.655 29.0631 126.556 28.8208 126.356 28.6526C126.157 28.4844 125.872 28.4003 125.501 28.4003H124.355V31.274H124.835V30.3977H125.501C125.542 30.3977 125.578 30.3914 125.618 30.3889L126.158 31.274H126.714L126.053 30.3048C126.168 30.2609 126.272 30.2044 126.356 30.1278ZM124.835 30.0098V28.7882H125.501C125.72 28.7882 125.892 28.8384 126.015 28.9389C126.139 29.0406 126.201 29.1899 126.201 29.3858C126.201 29.5829 126.139 29.7361 126.015 29.8453C125.892 29.9545 125.72 30.0098 125.501 30.0098H124.835Z" fill="white"/>
<path d="M47.6452 19.4921C46.6133 19.1054 45.5599 18.9196 44.5192 18.9196H44.5141H44.5129C43.4734 18.9196 42.415 18.7375 41.383 18.3471C40.2205 17.9102 39.2073 17.2561 38.3612 16.4476C38.321 16.4062 38.2758 16.366 38.2344 16.3208C36.5759 14.6623 35.6305 12.395 35.6268 10.036V10.0272C35.6218 6.43786 33.4222 3.05692 29.8642 1.71107C29.7651 1.67466 29.6646 1.63826 29.5654 1.60185C29.5466 1.59808 29.524 1.59306 29.5014 1.58427C29.4512 1.56544 29.401 1.55289 29.3508 1.53405C29.337 1.53029 29.3332 1.53029 29.3194 1.52527C28.4632 1.26287 27.5931 1.13733 26.7356 1.13733C24.3741 1.13733 22.1005 2.08896 20.4408 3.75244C20.3956 3.79261 20.3592 3.83405 20.3127 3.87924C19.5093 4.71914 18.8552 5.73355 18.4145 6.8961C18.0278 7.92808 17.8408 8.98141 17.8408 10.0222V10.031C17.8408 11.0717 17.66 12.1313 17.2683 13.1621C15.9287 16.72 12.5478 18.9146 8.95841 18.9196H8.94837C5.35903 18.9246 1.97808 21.1229 0.633501 24.6809C0.597086 24.7763 0.560671 24.8817 0.529291 24.9772C0.519251 24.9998 0.515482 25.0224 0.506693 25.045C0.487864 25.0952 0.474047 25.1454 0.456469 25.1943C0.451456 25.2044 0.451456 25.2132 0.447679 25.222C-0.534079 28.4397 0.40626 31.8382 2.67361 34.1005C2.71378 34.1457 2.75521 34.1872 2.80041 34.2286C3.64157 35.0371 4.65974 35.6912 5.81852 36.1281C6.84925 36.5186 7.91262 36.7006 8.95339 36.7006C12.5478 36.7006 15.9287 34.5048 17.2683 30.9431C17.66 29.9111 17.8408 28.8527 17.8408 27.812V27.8069C17.8408 26.7674 18.0278 25.7078 18.4145 24.6771C18.8552 23.5183 19.5093 22.5001 20.3127 21.6602C20.3592 21.6188 20.3956 21.5736 20.4408 21.5322C22.0993 19.8687 24.3704 18.9196 26.7294 18.9196H26.7344C27.5931 18.9196 28.4606 19.0464 29.3194 19.31H29.3206C29.3332 19.31 29.3382 19.31 29.3508 19.3151C29.401 19.3326 29.4512 19.3515 29.5014 19.3653C29.524 19.3741 29.5466 19.3791 29.5654 19.3879C29.6646 19.4193 29.7651 19.4557 29.8642 19.4921C33.4222 20.8367 35.6218 24.2176 35.6268 27.8082V27.817C35.6305 30.1747 36.5759 32.4421 38.2344 34.1005C38.2758 34.1457 38.321 34.1872 38.3612 34.2286C39.2073 35.0371 40.2205 35.6912 41.383 36.1281C42.415 36.5186 43.4734 36.6993 44.5141 36.7006H44.5192C48.1135 36.7006 51.4945 34.5048 52.834 30.9431C54.5653 26.3494 52.244 21.2233 47.6452 19.4921ZM51.3702 30.3919C50.303 33.2293 47.5498 35.1363 44.5141 35.1363C43.6303 35.135 42.7628 34.9769 41.9329 34.663C41.0014 34.3127 40.164 33.7867 39.4434 33.0987L39.407 33.0623L39.3957 33.0522C39.3781 33.0322 39.3592 33.0133 39.3404 32.9945C37.9782 31.6323 37.1948 29.7441 37.1911 27.8057C37.1861 23.4869 34.463 19.5586 30.3978 18.0219C30.2961 17.9843 30.1957 17.9479 30.094 17.914C30.0726 17.9064 30.0538 17.9002 30.0362 17.8939C30.0036 17.8813 29.9722 17.8725 29.932 17.8612L29.8894 17.8462C29.8743 17.8399 29.8592 17.8349 29.8454 17.8311C29.7877 17.811 29.7312 17.796 29.6747 17.7834C28.713 17.4997 27.7237 17.3553 26.7294 17.3553C23.9849 17.3553 21.2983 18.4676 19.3536 20.4073C19.3159 20.4425 19.2795 20.4801 19.2393 20.5228C19.2192 20.5404 19.2017 20.5592 19.1828 20.578C18.2099 21.595 17.4591 22.7876 16.9494 24.1285C16.5024 25.3186 16.2765 26.5565 16.2765 27.812C16.2765 28.6971 16.1183 29.5633 15.8044 30.3919C14.7373 33.2293 11.9841 35.1363 8.95339 35.1363C8.06579 35.1363 7.19701 34.9769 6.36967 34.663C5.43184 34.3102 4.59571 33.7842 3.88512 33.1012C3.87382 33.0899 3.84871 33.0661 3.83741 33.0548C3.81858 33.0347 3.79849 33.0133 3.7784 32.9932C1.86384 31.0824 1.15827 28.2953 1.93414 25.7116C1.93666 25.7041 1.93791 25.6953 1.94042 25.6877C1.95172 25.6564 1.96301 25.6237 1.97432 25.5848C1.98687 25.5522 1.99817 25.5183 2.00821 25.4844C2.00947 25.4793 2.01198 25.4756 2.01323 25.4718C2.03835 25.3965 2.06597 25.3136 2.0961 25.2345C3.16951 22.3972 5.92398 20.4876 8.95967 20.4839C13.2822 20.4789 17.2093 17.757 18.7321 13.717C19.1791 12.5356 19.4051 11.2965 19.4051 10.0222C19.4051 9.1509 19.5645 8.28338 19.8771 7.45101C20.2311 6.51444 20.7584 5.67705 21.4439 4.96144L21.4828 4.92001L21.4866 4.91499C21.5079 4.89616 21.528 4.87733 21.5481 4.85724C22.9153 3.48629 24.806 2.70163 26.7356 2.70163C27.45 2.70163 28.1606 2.80708 28.8473 3.01674C28.8624 3.02177 28.8762 3.02553 28.89 3.0293C28.9126 3.03683 28.9365 3.04562 28.9628 3.05315C29.013 3.07199 29.0595 3.08705 29.1009 3.09835L29.3118 3.17493C32.1492 4.24709 34.0575 7.00156 34.0612 10.0398C34.0675 12.7804 35.1761 15.4633 37.1057 17.4043C37.1484 17.4495 37.1923 17.4921 37.235 17.5336L37.2576 17.5549C37.2651 17.5624 37.2727 17.57 37.2802 17.5775C38.3072 18.5605 39.5036 19.3125 40.8294 19.8097C42.0095 20.2566 43.2499 20.4839 44.5192 20.4839C45.3904 20.4839 46.258 20.6433 47.0941 20.9559C48.9271 21.6464 50.3809 23.0073 51.1881 24.7901C51.9954 26.5716 52.0607 28.5602 51.3702 30.3919Z" fill="white"/>
<path d="M10.682 23.2307C10.1183 23.0198 9.53826 22.9131 8.95322 22.9131C6.92817 22.9156 5.08642 24.1924 4.36579 26.0994C4.34946 26.1446 4.33189 26.1936 4.31682 26.2388L4.29046 26.3254L4.28041 26.3518L4.23396 26.5388L4.21011 26.5865C3.77572 28.2613 4.25782 30.0416 5.49444 31.2744L5.56726 31.3485C6.04056 31.8042 6.59924 32.1545 7.23073 32.393C7.78062 32.6014 8.35939 32.7069 8.95322 32.7069C10.9783 32.7069 12.8175 31.4326 13.5344 29.5306C13.7428 28.9807 13.847 28.4019 13.847 27.8081C13.847 25.7831 12.5739 23.9426 10.682 23.2307Z" fill="white"/>
<path d="M28.4654 23.2307C27.9017 23.0198 27.3217 22.9131 26.7367 22.9131C24.7129 22.9156 22.8699 24.1924 22.1492 26.0994C22.1329 26.1446 22.1153 26.1936 22.1003 26.2388L22.0739 26.3254L22.0639 26.3518L22.0187 26.5388L21.9936 26.5865C21.5592 28.2613 22.0413 30.0416 23.2779 31.2744L23.352 31.3485C23.824 31.8042 24.3827 32.1545 25.0142 32.393C25.5641 32.6014 26.1428 32.7069 26.7367 32.7069C28.7617 32.7069 30.6022 31.4326 31.3178 29.5306C31.5262 28.9807 31.6317 28.4019 31.6317 27.8081C31.6317 25.7831 30.3574 23.9426 28.4654 23.2307ZM29.854 28.9794C29.3668 30.2726 28.1139 31.1426 26.7367 31.1426C26.3337 31.1426 25.9407 31.071 25.5653 30.9292C25.141 30.7685 24.7643 30.535 24.448 30.2336L24.3827 30.1671C23.5842 29.3699 23.2427 28.2149 23.475 27.1214L23.4951 27.0787L23.5365 26.9142L23.5641 26.8037L23.5692 26.7849L23.5917 26.7133C23.5993 26.692 23.6056 26.6707 23.6131 26.6531C24.104 25.3537 25.3594 24.4786 26.7379 24.4774C27.1334 24.4774 27.5301 24.5515 27.9143 24.6946C29.2024 25.1792 30.0674 26.4309 30.0674 27.8081C30.0674 28.2124 29.9958 28.6053 29.854 28.9794Z" fill="white"/>
</svg>
