<svg width="21" height="24" viewBox="0 0 21 24" fill="none" xmlns="http://www.w3.org/2000/svg">
<path d="M20.2062 16.7905C19.3176 15.8319 17.6553 14.3904 17.6553 9.66849C17.6553 6.08238 15.1499 3.21112 11.7717 2.50662V1.54507C11.7717 0.729813 11.1131 0.0681152 10.3011 0.0681152C9.48889 0.0681152 8.83045 0.729813 8.83045 1.54507V2.50662C5.45215 3.21112 2.94691 6.08238 2.94691 9.66849C2.94691 14.3904 1.28442 15.8319 0.396003 16.7905C0.120109 17.0873 -0.00219049 17.4433 2.96681e-05 17.7919C0.00504218 18.5481 0.59703 19.2689 1.47626 19.2689H19.1259C20.0051 19.2689 20.5974 18.5481 20.602 17.7919C20.6044 17.4433 20.4821 17.0873 20.2062 16.7905ZM3.10553 17.0534C4.08136 15.7625 5.14819 13.6224 5.15336 9.69508C5.15336 9.6862 5.15054 9.67735 5.15054 9.66849C5.15054 6.81349 7.45627 4.49905 10.3011 4.49905C13.1457 4.49905 15.4516 6.81349 15.4516 9.66849C15.4516 9.67735 15.4488 9.6862 15.4488 9.69508C15.4538 13.6224 16.5208 15.7625 17.4965 17.0534H3.10553ZM10.3011 23.6998C11.9253 23.6998 13.2428 22.3779 13.2428 20.7458H7.35923C7.35923 22.3779 8.67685 23.6998 10.3011 23.6998Z" fill="white"/>
</svg>
