<svg width="23" height="25" viewBox="0 0 23 25" fill="none" xmlns="http://www.w3.org/2000/svg">
<g id="noti icon">
<path id="Path 7423" d="M20.2062 18.0905C19.3176 17.132 17.6553 15.6905 17.6553 10.9685C17.6553 7.38243 15.1499 4.51117 11.7717 3.80667V2.84512C11.7717 2.02986 11.1131 1.36816 10.3011 1.36816C9.48889 1.36816 8.83045 2.02986 8.83045 2.84512V3.80667C5.45215 4.51117 2.94691 7.38243 2.94691 10.9685C2.94691 15.6905 1.28442 17.132 0.396003 18.0905C0.120109 18.3874 -0.00219049 18.7434 2.96681e-05 19.0919C0.00504218 19.8481 0.59703 20.5689 1.47626 20.5689H19.1259C20.0051 20.5689 20.5974 19.8481 20.602 19.0919C20.6044 18.7434 20.4821 18.3874 20.2062 18.0905ZM3.10553 18.3535C4.08136 17.0626 5.14819 14.9224 5.15336 10.9951C5.15336 10.9863 5.15054 10.9774 5.15054 10.9685C5.15054 8.11354 7.45627 5.7991 10.3011 5.7991C13.1457 5.7991 15.4516 8.11354 15.4516 10.9685C15.4516 10.9774 15.4488 10.9863 15.4488 10.9951C15.4538 14.9224 16.5208 17.0626 17.4965 18.3535H3.10553ZM10.3011 24.9998C11.9253 24.9998 13.2428 23.6779 13.2428 22.0459H7.35923C7.35923 23.6779 8.67685 24.9998 10.3011 24.9998Z" fill="white"/>
<path id="Path 7424" fill-rule="evenodd" clip-rule="evenodd" d="M16.2468 13.184C19.5096 13.184 22.1547 10.5387 22.1547 7.27609C22.1547 4.01344 19.5096 1.36816 16.2468 1.36816C12.984 1.36816 10.3389 4.01344 10.3389 7.27609C10.3389 10.5387 12.984 13.184 16.2468 13.184Z" fill="#02E7B8" stroke="#27375A"/>
</g>
</svg>
