<svg width="23" height="24" viewBox="0 0 23 24" fill="none" xmlns="http://www.w3.org/2000/svg">
<path fill-rule="evenodd" clip-rule="evenodd" d="M-0.000976562 1.05542C-0.000976562 0.859253 0.15815 0.699951 0.354477 0.699951H1.42084C1.61716 0.699951 1.77629 0.859253 1.77629 1.05542V21.6717H22.3926C22.5888 21.6717 22.748 21.831 22.748 22.0272V23.0935C22.748 23.2897 22.5888 23.449 22.3926 23.449H-0.000976562V1.05542Z" fill="#27375A"/>
<path d="M4.60798 16.7415C4.75619 16.891 4.99762 16.8922 5.14723 16.744L9.31399 12.6163L13.3538 16.5212C13.5076 16.6701 13.7535 16.6634 13.8987 16.506L19.0594 10.9255L20.5543 12.4203C20.7947 12.6608 21.2053 12.4905 21.2053 12.1507V7.72461C21.2053 7.5141 21.0345 7.34326 20.824 7.34326H16.3979C16.0581 7.34326 15.8878 7.75385 16.1282 7.99432L17.7104 9.57642L13.5576 14.0666L9.56599 10.2079C9.41711 10.0634 9.17976 10.0651 9.03271 10.211L3.80531 15.3894C3.65571 15.5377 3.65461 15.7792 3.80282 15.9288L4.60798 16.7415Z" fill="#27375A"/>
</svg>
