<svg width="20" height="20" viewBox="0 0 20 20" fill="none" xmlns="http://www.w3.org/2000/svg">
<path d="M19.0122 12.495L17.3701 11.5466C17.5358 10.6525 17.5358 9.73481 17.3701 8.84076L19.0122 7.8924C19.2011 7.78449 19.2859 7.56043 19.2242 7.35242C18.7964 5.98041 18.0678 4.73908 17.1157 3.70588C16.9692 3.54749 16.7302 3.50928 16.5451 3.61713L14.903 4.5655C14.2129 3.97199 13.4188 3.51313 12.5593 3.21253V1.31965C12.5593 1.10395 12.4089 0.915044 12.1969 0.868413C10.7822 0.552556 9.33269 0.567815 7.9874 0.868413C7.77532 0.915044 7.62504 1.10395 7.62504 1.31965V3.21637C6.76922 3.52076 5.97512 3.97962 5.28129 4.56928L3.64293 3.62092C3.4541 3.51313 3.21892 3.54749 3.07246 3.70966C2.12028 4.73908 1.39173 5.98041 0.963821 7.35621C0.898276 7.56427 0.986991 7.78833 1.17582 7.89625L2.81801 8.84455C2.65228 9.73865 2.65228 10.6564 2.81801 11.5504L1.17582 12.4988C0.986991 12.6066 0.902175 12.8307 0.963821 13.0388C1.39173 14.4108 2.12028 15.6521 3.07246 16.6853C3.21892 16.8429 3.45792 16.8819 3.64293 16.7741L5.28512 15.8257C5.97512 16.4192 6.76922 16.8781 7.62886 17.1787V19.0753C7.62886 19.291 7.77922 19.4799 7.99123 19.5266C9.40596 19.8425 10.8553 19.8272 12.2007 19.5266C12.4127 19.4799 12.5631 19.291 12.5631 19.0753V17.1787C13.4188 16.8742 14.2129 16.4153 14.9068 15.8257L16.549 16.7741C16.7378 16.8819 16.973 16.8475 17.1195 16.6853C18.0717 15.656 18.8002 14.4146 19.2281 13.0388C19.2859 12.8261 19.2011 12.6028 19.0122 12.495ZM10.0921 13.2773C8.39214 13.2773 7.00822 11.8939 7.00822 10.1937C7.00822 8.49347 8.39214 7.10999 10.0921 7.10999C11.7921 7.10999 13.176 8.49347 13.176 10.1937C13.176 11.8939 11.7921 13.2773 10.0921 13.2773Z" fill="white"/>
</svg>
