<svg width="28" height="27" viewBox="0 0 28 27" fill="none" xmlns="http://www.w3.org/2000/svg">
<path d="M13.9998 0.544189C6.77422 0.544189 0.921875 6.39655 0.921875 13.6221C0.921875 20.8476 6.77422 26.7 13.9998 26.7C21.2253 26.7 27.0776 20.8476 27.0776 13.6221C27.0776 6.39655 21.2253 0.544189 13.9998 0.544189ZM13.9998 4.46754C16.1641 4.46754 17.9231 6.22653 17.9231 8.39091C17.9231 10.5619 16.1641 12.3143 13.9998 12.3143C11.8354 12.3143 10.0764 10.5619 10.0764 8.39091C10.0764 6.22653 11.8354 4.46754 13.9998 4.46754ZM13.9998 23.0381C10.7237 23.0381 7.8466 21.3642 6.15302 18.8271C6.18572 16.2311 11.3907 14.7991 13.9998 14.7991C16.6088 14.7991 21.8073 16.2311 21.8465 18.8271C20.1529 21.3642 17.2758 23.0381 13.9998 23.0381Z" fill="white"/>
</svg>
